<svg width="585" height="685" viewBox="0 0 585 685" fill="none" xmlns="http://www.w3.org/2000/svg">
<path d="M292.449 684.361H2.42452V613.609H1.22097V609.488H2.42452V599.816H1.10049V596.155H0V592.834C25.4482 592.834 50.931 592.562 76.3792 592.426V574.665H75.3304V563.938H74.6081V559.732H76.3792V515.884L76.4308 493.663H75.3304V482.935H74.6081V478.729H76.4823C76.5167 467.627 76.5512 456.439 76.6027 445.201L76.7402 411.315H75.3476V400.587H74.6253V396.381H76.8091L76.8607 384.938C76.9295 366.616 77.0155 348.191 77.0843 329.733H75.3648V319.005H74.6425V314.799H77.1529C77.1873 303.697 77.2218 292.577 77.2562 281.441C77.2905 270.322 77.3076 259.202 77.3248 248.083H75.3648V237.355H74.6425V233.149H77.342C77.3764 203.197 77.3421 173.329 77.2562 143.786C77.153 114.242 76.9639 85.0044 76.6544 56.295H75.3648V45.5673H74.6425V41.3613H76.4823L76.4136 21.6598H75.3648V10.1828H76.4136V4.20595H74.6425V0H220.592V4.20595H219.182V10.1828H219.869V21.6598H219.182V41.3613H257.509V45.5673H256.374V46.4187H257.509V56.295H256.374V76.1498H284.058L292.5 76.1839L300.943 76.1498H328.626V56.295H327.492V46.4187H328.626V45.5673H327.492V41.3613H365.819V21.6598H365.131V10.1828H365.819V4.20595H364.409V0H510.358V4.20595H508.587V10.1828H509.636V21.6598H508.587L508.518 41.3613H510.358V45.5673H509.636V56.295H508.346C508.036 85.0215 507.847 114.242 507.744 143.786C507.641 173.329 507.624 203.197 507.658 233.149H510.358V237.355H509.636V248.083H507.675C507.693 259.202 507.727 270.322 507.744 281.441C507.779 292.56 507.813 303.68 507.847 314.799H510.358V319.005H509.636V329.733H507.916C507.985 348.174 508.071 366.599 508.14 384.938L508.191 396.381H510.375V400.587H509.653V411.315H508.26L508.398 445.201C508.432 456.439 508.483 467.61 508.518 478.729H510.392V482.935H509.67V493.663H508.569L508.621 515.884V559.732H510.392V563.938H509.67V574.665H508.621V592.426C534.069 592.562 559.552 592.834 585 592.834V596.155H583.9V599.816H582.576V609.488H583.779V613.609H582.576V684.361H292.552H292.449Z" fill="#E9D9C0"/>
</svg>
