<svg width="18" height="21" viewBox="0 0 18 21" fill="none" xmlns="http://www.w3.org/2000/svg">
  <path d="M15 6C15 6.2624 14.9832 6.52086 14.9505 6.77437C16.7712 7.80457 18 9.7588 18 12C18 15.3137 15.3137 18 12 18C11.2987 18 10.6256 17.8797 10 17.6586V21H8V17.4003C7.2499 17.7837 6.40022 18 5.5 18C2.46243 18 0 15.5376 0 12.5C0 11.0474 0.56312 9.7263 1.48297 8.74318C1.87725 9.8232 2.49744 10.7944 3.28576 11.5989L4.71424 10.1991C3.99071 9.4607 3.45705 8.53767 3.1906 7.50688C3.06607 7.02541 3 6.5204 3 6C3 2.68629 5.68629 0 9 0C12.3137 0 15 2.68629 15 6Z" fill="#906254"/>
</svg>
