<svg width="16" height="16" viewBox="0 0 16 16" fill="none" xmlns="http://www.w3.org/2000/svg">
  <path fill-rule="evenodd" clip-rule="evenodd" d="M8.12891 13.9657C6.95126 13.9657 6.40398 13.7931 5.4527 13.1024C4.85099 13.8794 2.94555 14.4866 2.86246 13.4478C2.86246 12.6679 2.69054 12.0089 2.4957 11.2894C2.26361 10.4031 2 9.41601 2 7.98576C2 4.56985 4.79081 2 8.09739 2C11.4068 2 14 4.69647 14 8.01741C14.0053 9.58769 13.3901 11.096 12.2894 12.2112C11.1887 13.3263 9.69238 13.9574 8.12891 13.9657ZM8.17762 4.95259C6.56731 4.86914 5.3123 5.98859 5.03437 7.74402C4.80515 9.1973 5.21202 10.9672 5.55872 11.0592C5.72491 11.0995 6.14324 10.76 6.40398 10.4981C6.83514 10.7972 7.33721 10.9769 7.85957 11.019C8.66165 11.0577 9.44685 10.7789 10.0464 10.2423C10.646 9.70581 11.012 8.95448 11.0659 8.14979C11.0972 7.34344 10.8121 6.55696 10.272 5.95957C9.73183 5.36217 8.97977 5.00162 8.17762 4.95547V4.95259Z" fill="#F3E8D5"/>
</svg>
